<?xml version="1.0" ?><svg style="enable-background:new 0 0 58 47.999;" version="1.1" viewBox="0 0 58 47.999" xml:space="preserve" xmlns="http://www.w3.org/2000/svg" xmlns:xlink="http://www.w3.org/1999/xlink"><g id="_x32_9-Treasure_Chest"><path d="M52.001,0H5.999C2.686,0,0,2.686,0,5.999v17h21h16h21v-17C58,2.686,55.314,0,52.001,0z" style="fill:#7F553D;"/><path d="M50,6H8C6.898,6,6.001,6.897,6.001,7.999v8H17h4v-3h16v3h4h10.999v-8C51.999,6.897,51.102,6,50,6z" style="fill:#BE7C6D;"/><path d="M37,21.999H21H0V42c0,3.313,2.686,5.999,5.999,5.999h46.001C55.314,47.999,58,45.313,58,42V21.999   H37z" style="fill:#6C4127;"/><path d="M29,30.999L29,30.999c-4.418,0-8-3.582-8-8v-10h16v10C37,27.417,33.418,30.999,29,30.999z" style="fill:#EBBA16;"/><path d="M32,19.999c0-1.657-1.343-3-3-3s-3,1.343-3,3c0,0.885,0.39,1.451,1,2v4h4v-4   C31.61,21.45,32,20.884,32,19.999z" style="fill:#FFFFFF;"/><path d="M40.621,27.999H35.24c-1.466,1.827-3.714,3-6.24,3s-4.773-1.173-6.24-3h-5.381H6V40   c0,1.102,0.897,1.999,1.999,1.999H50c1.102,0,1.999-0.897,1.999-1.999V27.999H40.621z" style="fill:#BE7C6D;"/><path d="M17,33.999h-6c-0.552,0-1-0.448-1-1s0.448-1,1-1h6c0.552,0,1,0.448,1,1S17.552,33.999,17,33.999z" style="fill:#9B5E54;"/><path d="M21,37.999h-6c-0.552,0-1-0.448-1-1s0.448-1,1-1h6c0.552,0,1,0.448,1,1S21.552,37.999,21,37.999z" style="fill:#9B5E54;"/><path d="M47,33.999h-6c-0.552,0-1-0.448-1-1s0.448-1,1-1h6c0.552,0,1,0.448,1,1S47.552,33.999,47,33.999z" style="fill:#9B5E54;"/><path d="M43,37.999h-6c-0.552,0-1-0.448-1-1s0.448-1,1-1h6c0.552,0,1,0.448,1,1S43.552,37.999,43,37.999z" style="fill:#9B5E54;"/><path d="M32,35.999h-6c-0.552,0-1-0.448-1-1s0.448-1,1-1h6c0.552,0,1,0.448,1,1S32.552,35.999,32,35.999z" style="fill:#9B5E54;"/></g><g id="Layer_1"/></svg>