<?xml version="1.0" ?><!DOCTYPE svg  PUBLIC '-//W3C//DTD SVG 1.1//EN'  'http://www.w3.org/Graphics/SVG/1.1/DTD/svg11.dtd'><svg enable-background="new 0 0 33 33" height="33px" id="Layer_1" version="1.1" viewBox="0 0 33 33" width="33px" xml:space="preserve" xmlns="http://www.w3.org/2000/svg" xmlns:xlink="http://www.w3.org/1999/xlink"><g><path d="M16.5,1.529c-10.043,0-16,7.381-16,8.509v21.433h4.426V13.299h23.148v18.172H32.5V10.038   C32.5,8.91,26.543,1.529,16.5,1.529z M11.734,10.486c0,0.334-0.271,0.605-0.605,0.605H6.893c-0.335,0-0.605-0.271-0.605-0.605   V9.165c0-0.334,0.271-0.605,0.605-0.605h4.236c0.335,0,0.605,0.271,0.605,0.605V10.486z M19.225,10.486   c0,0.334-0.271,0.605-0.605,0.605h-4.236c-0.335,0-0.605-0.271-0.605-0.605V9.165c0-0.334,0.271-0.605,0.605-0.605h4.236   c0.335,0,0.605,0.271,0.605,0.605V10.486z M26.713,10.486c0,0.334-0.271,0.605-0.605,0.605h-4.235   c-0.335,0-0.604-0.271-0.604-0.605V9.165c0-0.334,0.271-0.605,0.604-0.605h4.235c0.336,0,0.605,0.271,0.605,0.605V10.486z" fill="#404041"/><g><g><path d="M15.216,23.998h-2.343v3.736h-1.427v-3.736H9.104c-0.376,0-0.681,0.305-0.681,0.68v6.112     c0,0.376,0.305,0.681,0.681,0.681h6.112c0.376,0,0.681-0.305,0.681-0.681v-6.112C15.896,24.303,15.592,23.998,15.216,23.998z" fill="#1D76BB"/><path d="M23.896,23.998h-2.344v3.736h-1.427v-3.736h-2.343c-0.376,0-0.682,0.305-0.682,0.68v6.112     c0,0.376,0.306,0.681,0.682,0.681h6.111c0.377,0,0.682-0.305,0.682-0.681v-6.112C24.577,24.303,24.271,23.998,23.896,23.998z" fill="#1D76BB"/></g><path d="M19.557,15.487h-2.343v3.738h-1.428v-3.738h-2.342c-0.377,0-0.681,0.305-0.681,0.681v6.111    c0,0.377,0.304,0.682,0.681,0.682h6.111c0.377,0,0.682-0.305,0.682-0.682v-6.111C20.236,15.792,19.934,15.487,19.557,15.487z" fill="#1D76BB"/></g></g></svg>