<?xml version="1.0" ?><svg height="24" viewBox="0 0 24 24" width="24" xmlns="http://www.w3.org/2000/svg"><title/><g id="treasure-chest"><path d="M16,16a4,4,0,0,1-8,0V12H0V24H24V12H16ZM3,22a1,1,0,1,1,1-1A1,1,0,0,1,3,22Zm0-6a1,1,0,1,1,1-1A1,1,0,0,1,3,16Zm18-2a1,1,0,1,1-1,1A1,1,0,0,1,21,14Zm0,6a1,1,0,1,1-1,1A1,1,0,0,1,21,20ZM18,0H6A6,6,0,0,0,0,6v4H24V6A6,6,0,0,0,18,0ZM3,8A1,1,0,1,1,4,7,1,1,0,0,1,3,8ZM21,8a1,1,0,1,1,1-1A1,1,0,0,1,21,8ZM12,18a1,1,0,0,0,1-1V15.723a2,2,0,1,0-2,0V17A1,1,0,0,0,12,18Z" data-name="treasure-chest" id="treasure-chest-2"/></g></svg>